<svg width="55" height="55" viewBox="0 0 55 55" fill="none" xmlns="http://www.w3.org/2000/svg">
<path d="M27.3658 41.3544C24.5618 41.3544 21.8207 40.5211 19.4888 38.9597C17.1569 37.3983 15.3388 35.1789 14.2641 32.5819C13.1895 29.9848 12.9066 27.1267 13.451 24.3685C13.9955 21.6103 15.343 19.0758 17.3233 17.0851C19.3036 15.0945 21.8278 13.737 24.577 13.1842C27.3263 12.6314 30.1773 12.9081 32.7698 13.9793C35.3624 15.0505 37.5801 16.8681 39.143 19.2026C40.7058 21.5371 41.5436 24.2837 41.5505 27.0954C41.5542 28.966 41.1901 30.819 40.479 32.5483C39.7679 34.2777 38.7237 35.8495 37.4063 37.1739C36.0888 38.4982 34.5239 39.5491 32.8011 40.2665C31.0782 40.9838 29.2312 41.3535 27.3658 41.3544ZM37.4297 27.6998H34.6264C34.4582 27.6998 34.4091 27.7419 34.4021 27.9176C34.3683 29.7974 34.1334 31.6681 33.7013 33.4976C33.6592 33.6733 33.7013 33.7154 33.8765 33.7084H38.572C38.6381 33.7161 38.7049 33.7017 38.7619 33.6674C38.819 33.633 38.8631 33.5807 38.8874 33.5186C39.2153 32.9196 39.4988 32.2972 39.7354 31.6563C40.1611 30.466 40.4182 29.2217 40.4993 27.9598C40.4993 27.7419 40.4432 27.6998 40.24 27.6998C39.2799 27.6998 38.3337 27.6998 37.4297 27.6998ZM17.3089 27.6998C16.3908 27.6998 15.4727 27.6998 14.5546 27.6998C14.2463 27.6998 14.2533 27.6436 14.2743 27.9949C14.3947 29.9519 14.9528 31.8566 15.9072 33.5678C15.9773 33.7014 16.0754 33.7014 16.1875 33.7014C17.7574 33.7014 19.3203 33.7014 20.8831 33.7014C21.0934 33.7014 21.1004 33.6241 21.0583 33.4624C20.6292 31.6467 20.3942 29.7903 20.3575 27.9247C20.3575 27.7349 20.3014 27.6857 20.1122 27.6857L17.3089 27.6998ZM37.4297 26.6246C38.3618 26.6246 39.2939 26.6246 40.233 26.6246C40.4222 26.6246 40.4713 26.5824 40.4643 26.3856C40.3576 24.6274 39.905 22.9078 39.1327 21.3257C39.112 21.2773 39.0763 21.2368 39.0308 21.2102C38.9854 21.1836 38.9327 21.1724 38.8804 21.1781H33.9746C33.7784 21.1781 33.7643 21.2484 33.7994 21.4101C34.1386 23.0574 34.3286 24.7321 34.367 26.4137C34.367 26.5964 34.4301 26.6246 34.5913 26.6246C35.5304 26.5894 36.4906 26.5964 37.4367 26.5964L37.4297 26.6246ZM17.3019 26.6246H20.1472C20.2804 26.6246 20.3505 26.6246 20.3505 26.4418C20.3898 24.7456 20.5845 23.0565 20.9322 21.396C20.9672 21.2344 20.9322 21.1781 20.757 21.1781C19.2712 21.1781 17.7784 21.1781 16.2927 21.1781C15.7881 21.1781 15.5147 21.3187 15.4026 21.7966V21.8387C14.7536 23.2845 14.3758 24.8377 14.2883 26.4207C14.2883 26.6105 14.3444 26.6456 14.5196 26.6386C15.4377 26.5894 16.3698 26.5964 17.3089 26.5964L17.3019 26.6246ZM27.8984 30.7076V33.3992C27.8984 33.7014 27.8984 33.7014 28.1857 33.7014C29.5383 33.7014 30.8909 33.7014 32.2435 33.7014C32.4468 33.7014 32.5309 33.6451 32.5799 33.4413C32.995 31.7397 33.2299 29.999 33.2808 28.2479C33.2808 28.0722 33.3789 27.8403 33.2808 27.7279C33.1827 27.6154 32.9303 27.7279 32.7481 27.7279H28.1297C27.9264 27.7279 27.9054 27.7911 27.9054 27.9528C27.9124 28.8172 27.9054 29.7448 27.9054 30.6795L27.8984 30.7076ZM26.8331 30.7076C26.8331 29.7729 26.8331 28.8312 26.8331 27.8965C26.8331 27.7841 26.8331 27.7138 26.686 27.7138C24.9853 27.7138 23.2823 27.7138 21.5769 27.7138C21.4508 27.7138 21.4157 27.756 21.4157 27.8895C21.4537 29.7855 21.7029 31.6712 22.1586 33.5116C22.2007 33.6943 22.2707 33.7576 22.46 33.7576C23.8616 33.7576 25.2282 33.7576 26.6089 33.7576C26.7911 33.7576 26.8331 33.7014 26.8331 33.5257C26.8331 32.5137 26.8402 31.5861 26.8402 30.6584L26.8331 30.7076ZM26.8331 23.9541C26.8331 23.1107 26.8331 22.2604 26.8331 21.4171C26.8331 21.2765 26.8331 21.1992 26.6369 21.1992H22.2637C22.1166 21.1992 22.0605 21.2484 22.0325 21.3819C21.663 23.0468 21.4564 24.7438 21.4157 26.4489C21.4157 26.6035 21.4508 26.6527 21.605 26.6456C21.8993 26.6456 22.1937 26.6456 22.488 26.6456C23.8897 26.6456 25.2423 26.6456 26.6159 26.6456C26.7841 26.6456 26.8401 26.6105 26.8331 26.4207C26.8261 25.5493 26.8331 24.7271 26.8331 23.9049V23.9541ZM30.6106 26.6456C31.4376 26.6456 32.2646 26.6456 33.0985 26.6456C33.2738 26.6456 33.3228 26.6035 33.3228 26.4207C33.2878 24.7234 33.0882 23.0335 32.7271 21.3749C32.7256 21.3452 32.7178 21.3162 32.7042 21.2897C32.6907 21.2632 32.6717 21.2399 32.6485 21.2214C32.6253 21.2028 32.5985 21.1893 32.5698 21.1819C32.541 21.1744 32.5111 21.1731 32.4818 21.1781H28.1507C27.9895 21.1781 27.9264 21.1781 27.9264 21.396C27.9264 23.0686 27.9264 24.7482 27.9264 26.4207C27.9264 26.5824 27.9264 26.6316 28.1227 26.6246C28.9356 26.5894 29.7766 26.5964 30.6246 26.5964L30.6106 26.6456ZM24.17 14.4668C20.9179 15.2659 18.0987 17.2923 16.2997 20.124H16.4328H21.0863C21.2405 20.124 21.2756 20.0467 21.3036 19.9272C21.4796 19.289 21.6949 18.6623 21.9484 18.0509C22.3882 16.9052 23.0081 15.8376 23.7845 14.8884L24.17 14.4668ZM38.3898 20.1521V20.0818C36.6028 17.2475 33.8102 15.1981 30.5756 14.3473C30.5959 14.4283 30.6428 14.5001 30.7087 14.5511C31.286 15.1857 31.7763 15.8947 32.1665 16.6594C32.6984 17.6579 33.1146 18.7143 33.4069 19.8078C33.41 19.8519 33.4224 19.8948 33.4434 19.9337C33.4645 19.9726 33.4936 20.0065 33.5288 20.0332C33.564 20.0598 33.6045 20.0786 33.6475 20.0882C33.6906 20.0978 33.7352 20.098 33.7784 20.0889C34.5913 20.0889 35.4113 20.0889 36.2313 20.0889L38.3898 20.1521ZM26.8331 17.1302C26.8331 16.2377 26.8331 15.3523 26.8331 14.4597C26.8331 14.0521 26.8331 14.0451 26.4477 14.1927C25.6569 14.5181 24.9724 15.0584 24.4713 15.7528C23.537 17.0215 22.8411 18.4504 22.4179 19.9694C22.3619 20.1381 22.4179 20.1381 22.5651 20.1381C23.9177 20.1381 25.2773 20.1381 26.6369 20.1381C26.7981 20.1381 26.8402 20.0889 26.8402 19.9343C26.8331 18.9574 26.8401 18.0157 26.8331 17.081V17.1302ZM27.9054 17.1302C27.9054 18.079 27.9054 19.0207 27.9054 19.9413C27.9054 20.0889 27.9405 20.1381 28.0946 20.1381C29.4589 20.1381 30.8255 20.1381 32.1945 20.1381C32.3487 20.1381 32.3767 20.0959 32.3276 19.9553C32.1735 19.5477 32.0543 19.1331 31.9001 18.7325C31.4745 17.54 30.8435 16.4316 30.0359 15.4577C29.5372 14.8476 28.8799 14.3879 28.1367 14.1294C27.9545 14.0732 27.9054 14.1294 27.9054 14.2981C27.9124 15.1976 27.9054 16.1323 27.9054 17.067V17.1302ZM16.6921 34.7906C17.4437 35.8791 18.3641 36.84 19.4184 37.6368C20.831 38.7329 22.4567 39.5205 24.191 39.9489C24.1514 39.8608 24.0942 39.7819 24.0228 39.717C23.6251 39.286 23.2728 38.815 22.9716 38.3115C22.3377 37.2714 21.8451 36.1512 21.5068 34.9804C21.5026 34.9491 21.4921 34.919 21.4759 34.8919C21.4597 34.8648 21.4381 34.8413 21.4125 34.8229C21.3869 34.8045 21.3578 34.7915 21.327 34.7847C21.2963 34.778 21.2644 34.7776 21.2335 34.7836C20.0631 34.7836 18.8927 34.7836 17.7294 34.7836L16.6921 34.7906ZM30.5475 39.97C33.5961 39.1706 36.2631 37.3129 38.0744 34.7274H33.498C33.3649 34.7274 33.3158 34.7766 33.2808 34.9031C33.1196 35.4231 32.9233 35.9361 32.7131 36.4421C32.3484 37.343 31.8779 38.197 31.3114 38.9861C31.0662 39.2953 30.8068 39.5694 30.5265 39.9067L30.5475 39.97ZM26.8542 37.5525C26.8542 36.7092 26.8542 35.8659 26.8542 35.0155C26.8542 34.9031 26.8542 34.7977 26.686 34.7977H22.7403C22.6001 34.7977 22.5721 34.8398 22.6211 34.9663C22.7403 35.2755 22.8384 35.5848 22.9646 35.8869C23.4301 37.1343 24.1457 38.2728 25.0671 39.2321C25.5103 39.6958 26.0619 40.0412 26.6719 40.237C26.8401 40.2862 26.8822 40.237 26.8822 40.0824C26.8331 39.1829 26.8331 38.3396 26.8331 37.4892L26.8542 37.5525ZM27.9264 37.5525C27.9264 38.4028 27.9264 39.2462 27.9264 40.0895C27.9264 40.2933 27.9825 40.3144 28.1577 40.2581C28.8972 40.0073 29.5509 39.5517 30.0429 38.944C30.991 37.7914 31.7053 36.464 32.1454 35.0366C32.2085 34.8539 32.1454 34.8188 31.9912 34.8188C30.7017 34.8188 29.4192 34.8188 28.1367 34.8188C27.9615 34.8188 27.9264 34.875 27.9264 35.0436C27.9124 35.7956 27.9054 36.6319 27.9054 37.4682L27.9264 37.5525Z" fill="url(#paint0_linear)"/>
<g style="mix-blend-mode:multiply" opacity="0.15">
<g style="mix-blend-mode:multiply" opacity="0.15">
<path d="M38.0667 2.90635L51.4875 16.3713V37.8969L38.0667 51.3548H16.6073L3.17939 37.8969V16.3713L16.6073 2.90635H38.0737H38.0667ZM39.2371 0.0953064H15.4369L14.6169 0.92456L1.18903 14.3825L0.362061 15.2047V39.0634L1.18903 39.8857L14.6099 53.3436L15.4299 54.1658H39.223L40.043 53.3436L53.4639 39.8857L54.2839 39.0634V15.2047L53.4639 14.3825L40.05 0.92456L39.23 0.0953064H39.2371Z" fill="black"/>
</g>
</g>
<path opacity="0.2" d="M3.67603 16.5781L16.8114 3.41339H37.8628L50.9912 16.578V37.6903L37.8627 50.8618H16.8114L3.67603 37.6902V16.5781Z" stroke="url(#paint1_linear)"/>
<path d="M7.32251 18.2013L18.4255 7.06772H36.2391L47.342 18.2013V36.0668L36.2391 47.2003H18.4255L7.32251 36.0668V18.2013Z" stroke="url(#paint2_linear)"/>
<defs>
<linearGradient id="paint0_linear" x1="13.181" y1="22.9615" x2="41.7115" y2="24.3217" gradientUnits="userSpaceOnUse">
<stop stop-color="#19BCE0"/>
<stop offset="1" stop-color="#00FFF0"/>
</linearGradient>
<linearGradient id="paint1_linear" x1="3.17602" y1="20.0374" x2="51.7653" y2="22.3539" gradientUnits="userSpaceOnUse">
<stop stop-color="#19BCE0"/>
<stop offset="1" stop-color="#00FFF0"/>
</linearGradient>
<linearGradient id="paint2_linear" x1="6.82251" y1="21.106" x2="48.0747" y2="23.0727" gradientUnits="userSpaceOnUse">
<stop stop-color="#19BCE0"/>
<stop offset="1" stop-color="#00FFF0"/>
</linearGradient>
</defs>
</svg>
